<?xml version="1.0" encoding="UTF-8"?><svg id="Layer_1" xmlns="http://www.w3.org/2000/svg" viewBox="0 0 1920 320"><defs><style>.cls-1{fill:#cdff12;}.cls-2{fill:#cbd0d2;}.cls-3{fill:#e0ff80;}.cls-4{fill:#182b31;}.cls-5{fill:#9aa3a7;}</style></defs><g><polygon class="cls-3" points="630.69 39.03 579.78 39.03 579.78 82.18 721.49 176.91 721.49 99.71 630.69 39.03"/><polygon class="cls-2" points="563.64 39.03 512.73 39.03 421.93 99.71 421.93 176.91 563.64 82.18 563.64 39.03"/><polygon class="cls-5" points="563.64 238.98 421.93 144.25 421.93 221.46 512.73 282.13 563.64 282.13 563.64 238.98"/><path class="cls-4" d="M571.71,123.83h0c19.33,0,35.01,15.67,35.01,35.01v2.54c0,19.33-15.67,35.01-35.01,35.01h0c-19.33,0-35.01-15.67-35.01-35.01v-2.54c0-19.33,15.67-35.01,35.01-35.01Z"/><polygon class="cls-1" points="579.78 238.98 579.78 282.13 630.69 282.13 721.49 221.46 721.49 144.25 579.78 238.98"/></g><g><path class="cls-4" d="M81.06,39.03h53.09v241.94h-53.09V39.03Z"/><path class="cls-4" d="M166.41,39.03h94.42c85.02,0,123.31,52.42,123.31,120.97s-38.3,120.97-123.31,120.97h-94.42V39.03Zm94.42,196.58c48.72,0,68.21-33.26,68.21-75.61s-19.49-75.6-68.21-75.6h-41.34V235.61h41.34Z"/><path class="cls-4" d="M733.72,39.03h56.45l64.18,194.56,62.84-194.56h56.44l-89.04,241.94h-62.17l-88.71-241.94Z"/><path class="cls-4" d="M988.45,39.03h53.09v241.94h-53.09V39.03Z"/><path class="cls-4" d="M1062.36,199.99h51.75c.67,34.61,26.21,42.67,54.77,42.67,26.21,0,44.02-10.41,44.02-29.57,0-14.79-8.06-23.86-56.78-32.26-61.5-10.42-88.37-32.6-88.37-76.28,0-40.32,35.62-69.55,93.08-69.55,64.18,0,98.12,30.91,100.13,81.65h-51.07c-1.35-26.88-16.8-39.31-49.06-39.31-23.52,0-38.99,9.75-38.99,25.54s8.07,24.86,53.1,32.6c71.57,12.09,92.74,34.94,92.74,74.6,0,49.39-43.01,74.93-100.8,74.93-64.18,0-104.17-31.25-104.51-85.01Z"/><path class="cls-4" d="M1287.85,39.03h53.09v241.94h-53.09V39.03Z"/><path class="cls-4" d="M1363.11,160c0-68.55,42.67-125,121.98-125s121.98,56.45,121.98,125-42.34,125-121.98,125-121.98-56.45-121.98-125Zm121.98,77.96c47.38,0,66.87-35.62,66.87-77.96s-19.49-77.96-66.87-77.96-66.87,35.62-66.87,77.96,19.49,77.96,66.87,77.96Z"/><path class="cls-4" d="M1680.34,112.62v168.35h-51.07V39.03h57.79l101.15,168.69V39.03h50.73v241.94h-57.79l-100.81-168.35Z"/></g></svg>